<?xml version="1.0" encoding="iso-8859-1"?>
<!-- Generator: Adobe Illustrator 16.0.0, SVG Export Plug-In . SVG Version: 6.00 Build 0)  -->
<!DOCTYPE svg PUBLIC "-//W3C//DTD SVG 1.1//EN" "http://www.w3.org/Graphics/SVG/1.1/DTD/svg11.dtd">
<svg version="1.1" id="Layer_1" xmlns="http://www.w3.org/2000/svg" xmlns:xlink="http://www.w3.org/1999/xlink" x="0px" y="0px"
	 width="200px" height="200px" viewBox="0 0 30.44 29.103" style="enable-background:new 0 0 30.44 29.103;"
	 xml:space="preserve">
<g>
	<path  d="M11.132,22.693L11.132,22.693L0.906,24.208l13.642,4.895l12.146-1.632l3.746-15.816L13.552,9.998L11.132,22.693z
		 M11.153,27.193l-3.349-1.28l1.614-0.214l3.757,1.254L11.153,27.193z M28.739,12.818l-3.154,13.325L12.073,22.32l2.171-11.206
		L28.739,12.818z"/>
	<path d="M9.819,13.671L8.139,8.458L0,11.081l1.682,5.213L9.819,13.671z M7.588,9.025L5.099,12.96l-4.319-1.74L7.588,9.025z
		 M5.246,13.42l2.719-4.295l1.388,4.307l-7.432,2.397l-1.389-4.308L5.246,13.42z"/>
	<path d="M20.525,3.733L15.169,0l-2.391,3.432l5.357,3.732L20.525,3.733z M19.926,3.66l-3.542,0.307l-0.938-3.429L19.926,3.66z
		 M13.173,3.362l1.975-2.834l1.026,3.74l3.865-0.333l-1.975,2.835L13.173,3.362z"/>
	<path d="M25.022,8.854l-0.686-2.334l-3.644,1.071l0.686,2.333L25.022,8.854z M24.086,6.767l-1.15,1.719l-1.896-0.823L24.086,6.767z
		 M22.996,8.69l1.256-1.875l0.567,1.928l-3.327,0.978l-0.566-1.928L22.996,8.69z"/>
	<path d="M8.406,19.095l1.215-0.97l-1.514-1.899l-1.218,0.97L8.406,19.095z M8.148,16.446l1.268,1.59l-1.297-0.269L8.148,16.446z
		 M9.427,18.146l-1.005,0.8l-1.383-1.732l1.005-0.803l-0.031,1.443L9.427,18.146z"/>
	<path d="M3.017,7.628L1.504,5.729l-1.218,0.97l1.516,1.898L3.017,7.628z M1.544,5.95l1.267,1.589L1.516,7.272L1.544,5.95z
		 M1.44,5.915L1.407,7.358l1.415,0.291l-1.005,0.8L0.435,6.717L1.44,5.915z"/>
	<path d="M15.51,7.628l-1.514-1.898l-1.218,0.97l1.516,1.898L15.51,7.628z M14.036,5.95l1.267,1.589l-1.295-0.267L14.036,5.95z
		 M13.933,5.915L13.9,7.358l1.414,0.291l-1.005,0.8l-1.382-1.732L13.933,5.915z"/>
	<path d="M25.947,17.519l-2.826-2.533l-1.625,1.811l2.83,2.534L25.947,17.519z M25.608,17.435l-2.067-0.074l-0.299-2.045
		L25.608,17.435z M21.731,16.784l1.341-1.497l0.325,2.233l2.255,0.082l-1.341,1.496L21.731,16.784z"/>
	<path d="M19.746,23.87l3.089-2.207l-1.413-1.98l-3.091,2.208L19.746,23.87z M19.901,23.556l0.524-2.001l2.061,0.155L19.901,23.556z
		 M22.552,21.55l-2.251-0.17l-0.57,2.185l-1.17-1.636l2.821-2.016L22.552,21.55z"/>
	<path d="M3.499,21.292l-1.884-1.688l-1.083,1.207L2.418,22.5L3.499,21.292z M3.272,21.237l-1.378-0.049l-0.199-1.364L3.272,21.237z
		 M0.688,20.803l0.895-0.997l0.217,1.488l1.504,0.055l-0.894,0.998L0.688,20.803z"/>
	<path d="M30.44,6.327l-4.676-4.19l-2.687,2.994l4.678,4.191L30.44,6.327z M29.878,6.189L26.46,6.065l-0.497-3.383L29.878,6.189z
		 M23.463,5.109l2.221-2.474l0.538,3.694l3.731,0.135L27.734,8.94L23.463,5.109z"/>
	<path d="M9.819,3.546L4.485,0.817L2.739,4.233L8.07,6.963L9.819,3.546z M3.291,4.225l3.182-0.717l1.28,2.999L3.291,4.225z
		 M6.628,3.206L3.154,3.987l1.443-2.821l4.869,2.492L8.023,6.481L6.628,3.206z"/>
	<path d="M20.427,18.743l-0.92-4.461l-2.854,0.589l0.916,4.459L20.427,18.743z M19.354,14.515l0.839,4.073l-2.362,0.486l1.279-2.386
		l-2.116-1.688L19.354,14.515z M18.857,16.74l-1.17,2.187l-0.769-3.732L18.857,16.74z"/>
</g>
<g>
</g>
<g>
</g>
<g>
</g>
<g>
</g>
<g>
</g>
<g>
</g>
<g>
</g>
<g>
</g>
<g>
</g>
<g>
</g>
<g>
</g>
<g>
</g>
<g>
</g>
<g>
</g>
<g>
</g>
</svg>
